<svg width="91" height="16" viewBox="0 0 91 16" fill="none" xmlns="http://www.w3.org/2000/svg">
<path d="M7.29492 0.78125V15H4.86328V0.78125H7.29492ZM11.7578 0.78125V2.73438H0.439453V0.78125H11.7578ZM11.582 9.83398V9.60938C11.582 8.84766 11.6927 8.14128 11.9141 7.49023C12.1354 6.83268 12.4544 6.26302 12.8711 5.78125C13.2943 5.29297 13.8086 4.91536 14.4141 4.64844C15.026 4.375 15.7161 4.23828 16.4844 4.23828C17.2591 4.23828 17.9492 4.375 18.5547 4.64844C19.1667 4.91536 19.6842 5.29297 20.1074 5.78125C20.5306 6.26302 20.8529 6.83268 21.0742 7.49023C21.2956 8.14128 21.4062 8.84766 21.4062 9.60938V9.83398C21.4062 10.5957 21.2956 11.3021 21.0742 11.9531C20.8529 12.6042 20.5306 13.1738 20.1074 13.6621C19.6842 14.1439 19.1699 14.5215 18.5645 14.7949C17.959 15.0618 17.2721 15.1953 16.5039 15.1953C15.7292 15.1953 15.0358 15.0618 14.4238 14.7949C13.8184 14.5215 13.304 14.1439 12.8809 13.6621C12.4577 13.1738 12.1354 12.6042 11.9141 11.9531C11.6927 11.3021 11.582 10.5957 11.582 9.83398ZM13.9355 9.60938V9.83398C13.9355 10.3092 13.9844 10.7585 14.082 11.1816C14.1797 11.6048 14.3327 11.9759 14.541 12.2949C14.7493 12.6139 15.0163 12.8646 15.3418 13.0469C15.6673 13.2292 16.0547 13.3203 16.5039 13.3203C16.9401 13.3203 17.3177 13.2292 17.6367 13.0469C17.9622 12.8646 18.2292 12.6139 18.4375 12.2949C18.6458 11.9759 18.7988 11.6048 18.8965 11.1816C19.0007 10.7585 19.0527 10.3092 19.0527 9.83398V9.60938C19.0527 9.14062 19.0007 8.69792 18.8965 8.28125C18.7988 7.85807 18.6426 7.48372 18.4277 7.1582C18.2194 6.83268 17.9525 6.57878 17.627 6.39648C17.3079 6.20768 16.9271 6.11328 16.4844 6.11328C16.0417 6.11328 15.6576 6.20768 15.332 6.39648C15.013 6.57878 14.7493 6.83268 14.541 7.1582C14.3327 7.48372 14.1797 7.85807 14.082 8.28125C13.9844 8.69792 13.9355 9.14062 13.9355 9.60938ZM27.7441 15H24.707L24.7266 13.0566H27.7441C28.623 13.0566 29.3587 12.8646 29.9512 12.4805C30.5501 12.0964 30.9993 11.5462 31.2988 10.8301C31.6048 10.1139 31.7578 9.26107 31.7578 8.27148V7.5C31.7578 6.73177 31.6699 6.05143 31.4941 5.45898C31.3249 4.86654 31.071 4.36849 30.7324 3.96484C30.4004 3.5612 29.9902 3.25521 29.502 3.04688C29.0202 2.83854 28.4635 2.73438 27.832 2.73438H24.6484V0.78125H27.832C28.776 0.78125 29.6387 0.940755 30.4199 1.25977C31.2012 1.57227 31.875 2.02474 32.4414 2.61719C33.0143 3.20964 33.4538 3.91927 33.7598 4.74609C34.0658 5.57292 34.2188 6.4974 34.2188 7.51953V8.27148C34.2188 9.29362 34.0658 10.2181 33.7598 11.0449C33.4538 11.8717 33.0143 12.5814 32.4414 13.1738C31.8685 13.7598 31.1849 14.2122 30.3906 14.5312C29.6029 14.8438 28.7207 15 27.7441 15ZM26.0645 0.78125V15H23.6133V0.78125H26.0645ZM35.9961 9.83398V9.60938C35.9961 8.84766 36.1068 8.14128 36.3281 7.49023C36.5495 6.83268 36.8685 6.26302 37.2852 5.78125C37.7083 5.29297 38.2227 4.91536 38.8281 4.64844C39.4401 4.375 40.1302 4.23828 40.8984 4.23828C41.6732 4.23828 42.3633 4.375 42.9688 4.64844C43.5807 4.91536 44.0983 5.29297 44.5215 5.78125C44.9447 6.26302 45.2669 6.83268 45.4883 7.49023C45.7096 8.14128 45.8203 8.84766 45.8203 9.60938V9.83398C45.8203 10.5957 45.7096 11.3021 45.4883 11.9531C45.2669 12.6042 44.9447 13.1738 44.5215 13.6621C44.0983 14.1439 43.584 14.5215 42.9785 14.7949C42.373 15.0618 41.6862 15.1953 40.918 15.1953C40.1432 15.1953 39.4499 15.0618 38.8379 14.7949C38.2324 14.5215 37.7181 14.1439 37.2949 13.6621C36.8717 13.1738 36.5495 12.6042 36.3281 11.9531C36.1068 11.3021 35.9961 10.5957 35.9961 9.83398ZM38.3496 9.60938V9.83398C38.3496 10.3092 38.3984 10.7585 38.4961 11.1816C38.5938 11.6048 38.7467 11.9759 38.9551 12.2949C39.1634 12.6139 39.4303 12.8646 39.7559 13.0469C40.0814 13.2292 40.4688 13.3203 40.918 13.3203C41.3542 13.3203 41.7318 13.2292 42.0508 13.0469C42.3763 12.8646 42.6432 12.6139 42.8516 12.2949C43.0599 11.9759 43.2129 11.6048 43.3105 11.1816C43.4147 10.7585 43.4668 10.3092 43.4668 9.83398V9.60938C43.4668 9.14062 43.4147 8.69792 43.3105 8.28125C43.2129 7.85807 43.0566 7.48372 42.8418 7.1582C42.6335 6.83268 42.3665 6.57878 42.041 6.39648C41.722 6.20768 41.3411 6.11328 40.8984 6.11328C40.4557 6.11328 40.0716 6.20768 39.7461 6.39648C39.4271 6.57878 39.1634 6.83268 38.9551 7.1582C38.7467 7.48372 38.5938 7.85807 38.4961 8.28125C38.3984 8.69792 38.3496 9.14062 38.3496 9.60938ZM55.5078 11.3379C55.5078 11.0449 55.4622 10.7845 55.3711 10.5566C55.2865 10.3288 55.1335 10.1204 54.9121 9.93164C54.6908 9.74284 54.3783 9.56055 53.9746 9.38477C53.5775 9.20247 53.0697 9.01693 52.4512 8.82812C51.7741 8.61979 51.1491 8.38867 50.5762 8.13477C50.0098 7.87435 49.515 7.57487 49.0918 7.23633C48.6686 6.89128 48.3398 6.4974 48.1055 6.05469C47.8711 5.60547 47.7539 5.08789 47.7539 4.50195C47.7539 3.92253 47.8743 3.39518 48.1152 2.91992C48.3626 2.44466 48.7109 2.03451 49.1602 1.68945C49.6159 1.33789 50.153 1.06771 50.7715 0.878906C51.39 0.683594 52.0736 0.585938 52.8223 0.585938C53.877 0.585938 54.7852 0.78125 55.5469 1.17188C56.3151 1.5625 56.9043 2.08659 57.3145 2.74414C57.7311 3.40169 57.9395 4.1276 57.9395 4.92188H55.5078C55.5078 4.45312 55.4069 4.03971 55.2051 3.68164C55.0098 3.31706 54.7103 3.0306 54.3066 2.82227C53.9095 2.61393 53.4049 2.50977 52.793 2.50977C52.2135 2.50977 51.7318 2.59766 51.3477 2.77344C50.9635 2.94922 50.6771 3.18685 50.4883 3.48633C50.2995 3.78581 50.2051 4.12435 50.2051 4.50195C50.2051 4.76888 50.2669 5.01302 50.3906 5.23438C50.5143 5.44922 50.7031 5.65104 50.957 5.83984C51.2109 6.02214 51.5299 6.19466 51.9141 6.35742C52.2982 6.52018 52.7507 6.67643 53.2715 6.82617C54.0592 7.06055 54.7461 7.32096 55.332 7.60742C55.918 7.88737 56.4062 8.20638 56.7969 8.56445C57.1875 8.92253 57.4805 9.32943 57.6758 9.78516C57.8711 10.2344 57.9688 10.7454 57.9688 11.3184C57.9688 11.9173 57.8483 12.4577 57.6074 12.9395C57.3665 13.4147 57.0215 13.8216 56.5723 14.1602C56.1296 14.4922 55.5957 14.7493 54.9707 14.9316C54.3522 15.1074 53.6621 15.1953 52.9004 15.1953C52.2168 15.1953 51.543 15.1042 50.8789 14.9219C50.2214 14.7396 49.6224 14.4629 49.082 14.0918C48.5417 13.7142 48.112 13.2454 47.793 12.6855C47.474 12.1191 47.3145 11.4583 47.3145 10.7031H49.7656C49.7656 11.1654 49.8438 11.5592 50 11.8848C50.1628 12.2103 50.3874 12.4772 50.6738 12.6855C50.9603 12.8874 51.2923 13.0371 51.6699 13.1348C52.054 13.2324 52.4642 13.2812 52.9004 13.2812C53.4733 13.2812 53.9518 13.1999 54.3359 13.0371C54.7266 12.8743 55.0195 12.6465 55.2148 12.3535C55.4102 12.0605 55.5078 11.722 55.5078 11.3379ZM62.2266 0V15H59.8828V0H62.2266ZM61.8164 9.32617L61.0547 9.31641C61.0612 8.58724 61.1621 7.91341 61.3574 7.29492C61.5592 6.67643 61.8392 6.13932 62.1973 5.68359C62.5618 5.22135 62.998 4.86654 63.5059 4.61914C64.0137 4.36523 64.5768 4.23828 65.1953 4.23828C65.7161 4.23828 66.1849 4.3099 66.6016 4.45312C67.0247 4.59635 67.3893 4.82747 67.6953 5.14648C68.0013 5.45898 68.2324 5.86914 68.3887 6.37695C68.5514 6.87826 68.6328 7.49023 68.6328 8.21289V15H66.2695V8.19336C66.2695 7.68555 66.1947 7.2819 66.0449 6.98242C65.9017 6.68294 65.6901 6.4681 65.4102 6.33789C65.1302 6.20117 64.7884 6.13281 64.3848 6.13281C63.9616 6.13281 63.5872 6.21745 63.2617 6.38672C62.9427 6.55599 62.6758 6.78711 62.4609 7.08008C62.2461 7.37305 62.0833 7.71159 61.9727 8.0957C61.8685 8.47982 61.8164 8.88997 61.8164 9.32617ZM73.3398 0V15H70.9961V0H73.3398ZM72.9297 9.32617L72.168 9.31641C72.1745 8.58724 72.2754 7.91341 72.4707 7.29492C72.6725 6.67643 72.9525 6.13932 73.3105 5.68359C73.6751 5.22135 74.1113 4.86654 74.6191 4.61914C75.127 4.36523 75.6901 4.23828 76.3086 4.23828C76.8294 4.23828 77.2982 4.3099 77.7148 4.45312C78.138 4.59635 78.5026 4.82747 78.8086 5.14648C79.1146 5.45898 79.3457 5.86914 79.502 6.37695C79.6647 6.87826 79.7461 7.49023 79.7461 8.21289V15H77.3828V8.19336C77.3828 7.68555 77.3079 7.2819 77.1582 6.98242C77.015 6.68294 76.8034 6.4681 76.5234 6.33789C76.2435 6.20117 75.9017 6.13281 75.498 6.13281C75.0749 6.13281 74.7005 6.21745 74.375 6.38672C74.056 6.55599 73.7891 6.78711 73.5742 7.08008C73.3594 7.37305 73.1966 7.71159 73.0859 8.0957C72.9818 8.47982 72.9297 8.88997 72.9297 9.32617ZM84.4531 0V15H82.1094V0H84.4531ZM84.043 9.32617L83.2812 9.31641C83.2878 8.58724 83.3887 7.91341 83.584 7.29492C83.7858 6.67643 84.0658 6.13932 84.4238 5.68359C84.7884 5.22135 85.2246 4.86654 85.7324 4.61914C86.2402 4.36523 86.8034 4.23828 87.4219 4.23828C87.9427 4.23828 88.4115 4.3099 88.8281 4.45312C89.2513 4.59635 89.6159 4.82747 89.9219 5.14648C90.2279 5.45898 90.459 5.86914 90.6152 6.37695C90.778 6.87826 90.8594 7.49023 90.8594 8.21289V15H88.4961V8.19336C88.4961 7.68555 88.4212 7.2819 88.2715 6.98242C88.1283 6.68294 87.9167 6.4681 87.6367 6.33789C87.3568 6.20117 87.015 6.13281 86.6113 6.13281C86.1882 6.13281 85.8138 6.21745 85.4883 6.38672C85.1693 6.55599 84.9023 6.78711 84.6875 7.08008C84.4727 7.37305 84.3099 7.71159 84.1992 8.0957C84.0951 8.47982 84.043 8.88997 84.043 9.32617Z" fill="white"/>
</svg>
