<svg width="157" height="41" viewBox="0 0 157 41" fill="none" xmlns="http://www.w3.org/2000/svg">
<path d="M19.233 4.2298L6.58146 17.0121C4.73689 18.8758 4.73689 21.8973 6.58146 23.761L19.4522 36.7648C21.2968 38.6284 24.2874 38.6284 26.132 36.7648L38.7836 23.9824C40.6281 22.1188 40.6281 19.0973 38.7836 17.2336L25.9128 4.2298C24.0682 2.36616 21.0776 2.36616 19.233 4.2298Z" fill="#F0F0F0" stroke="black" stroke-width="4"/>
<path d="M28.3717 20.1373L30.1141 20.3326L23.6683 15.2309C22.8844 15.6363 22.1414 15.9709 21.7856 15.9536L28.8682 21.9163L28.3717 20.1373Z" fill="#F94850" stroke="black"/>
<path d="M14.9416 9.27594C22.5162 6.82931 28.9793 13.5808 28.263 16.5945C27.5466 19.6082 20.8612 19.8435 19.1137 18.9144C17.3661 17.9854 16.4421 17.5934 14.9844 14.7458C10.6898 15.3047 9.02747 19.7601 12.9913 24.2891C14.5344 26.0521 21.6941 32.164 22.6852 35.623C24.1488 40.7312 18.5232 36.3213 19.3589 36.7656C19.3589 36.7656 8.38225 25.6082 6.25344 23.323C4.12463 21.0377 5.45514 18.2148 6.25344 17.341C7.05173 16.4672 13.3051 9.80455 14.9416 9.27594Z" fill="#119DA4"/>
<path d="M14.9416 9.27593L14.8202 8.89181L14.9416 9.27593ZM12.9913 24.2891L13.2903 24.022L12.9913 24.2891ZM14.9843 14.7457L15.3389 14.5604L15.2105 14.3097L14.9334 14.3457L14.9843 14.7457ZM6.25343 17.341L6.54673 17.6145L6.25343 17.341ZM22.6852 35.6229L23.0685 35.5108L22.6852 35.6229ZM19.3589 36.7656L19.1731 37.1225L19.6421 36.4813L19.3589 36.7656ZM6.25343 23.3229L6.5441 23.0466L6.25343 23.3229ZM28.6511 16.6887C28.8669 15.7808 28.534 14.6779 27.8884 13.6234C27.2334 12.5534 26.2165 11.4648 24.9412 10.5578C22.3892 8.74292 18.7512 7.62206 14.8202 8.89181L15.0632 9.66007C18.7067 8.48319 22.0875 9.51476 24.4816 11.2174C25.6794 12.0691 26.6174 13.0806 27.2095 14.0477C27.811 15.0303 28.0172 15.9014 27.8748 16.5004L28.6511 16.6887ZM13.2903 24.022C11.3648 21.8219 10.8647 19.7102 11.2769 18.1315C11.6856 16.5664 13.0209 15.4078 15.0353 15.1457L14.9334 14.3457C12.6533 14.6425 11.0102 15.9911 10.505 17.9257C10.0034 19.8468 10.6539 22.2272 12.6923 24.5562L13.2903 24.022ZM14.6298 14.931C15.3701 16.377 15.9922 17.2346 16.6744 17.8503C17.3509 18.461 18.0703 18.8155 18.9278 19.2713L19.2996 18.5575C18.4095 18.0845 17.7931 17.7784 17.2063 17.2489C16.6253 16.7245 16.0565 15.9622 15.3389 14.5604L14.6298 14.931ZM27.8748 16.5004C27.7309 17.106 27.28 17.6084 26.5804 18.0081C25.8812 18.4077 24.9742 18.6796 24.0121 18.8349C23.0531 18.9896 22.0616 19.0248 21.2071 18.9654C20.3388 18.905 19.6611 18.7499 19.2996 18.5575L18.9278 19.2713C19.44 19.5437 20.2533 19.7074 21.1523 19.7701C22.0653 19.8336 23.1176 19.7959 24.138 19.6313C25.1552 19.4672 26.163 19.1732 26.9734 18.7101C27.7836 18.2471 28.4369 17.5899 28.6511 16.6887L27.8748 16.5004ZM14.8202 8.89181C14.5537 8.97787 14.235 9.17108 13.9012 9.40881C13.5583 9.65308 13.1665 9.9687 12.7473 10.3291C11.9084 11.0504 10.9409 11.9673 10.0045 12.8904C8.13089 14.7371 6.36308 16.6264 5.96012 17.0674L6.54673 17.6145C6.94208 17.1818 8.70011 15.3028 10.5619 13.4676C11.4932 12.5498 12.4458 11.6473 13.2646 10.9434C13.6743 10.5912 14.0458 10.2927 14.3613 10.068C14.6858 9.8368 14.9205 9.70615 15.0632 9.66007L14.8202 8.89181ZM12.6923 24.5562C13.092 25.013 13.845 25.7406 14.7414 26.6086C15.6456 27.484 16.7116 28.5169 17.7597 29.6017C18.8084 30.6874 19.8327 31.8184 20.654 32.8879C21.4823 33.9665 22.076 34.9471 22.3017 35.7351L23.0685 35.5108C22.7988 34.5693 22.126 33.4889 21.2848 32.3935C20.4368 31.2893 19.3889 30.1335 18.3308 29.0383C17.2723 27.9425 16.197 26.9007 15.2938 26.0263C14.3828 25.1442 13.6621 24.4468 13.2903 24.022L12.6923 24.5562ZM22.3017 35.7351C22.4788 36.3529 22.5394 36.797 22.5293 37.107C22.519 37.4166 22.4407 37.5508 22.383 37.609C22.3281 37.6645 22.2339 37.7098 22.0575 37.7088C21.8776 37.708 21.651 37.6582 21.3931 37.5639C20.8789 37.3763 20.3318 37.0475 19.9594 36.7865C19.771 36.6545 19.6454 36.5526 19.5967 36.506C19.5838 36.4935 19.5888 36.4969 19.6003 36.512C19.604 36.5169 19.6262 36.5458 19.6446 36.5915C19.6515 36.6087 19.7303 36.7985 19.5911 36.9813C19.4578 37.1566 19.2649 37.1367 19.2512 37.1356C19.2055 37.132 19.174 37.1207 19.1691 37.119C19.1539 37.1137 19.1523 37.1114 19.1731 37.1225L19.5448 36.4087C19.5133 36.3919 19.472 36.3714 19.429 36.3564C19.4103 36.3499 19.3677 36.3359 19.3141 36.3316C19.2923 36.3299 19.0939 36.3113 18.9582 36.49C18.8165 36.6762 18.8954 36.8711 18.9052 36.8954C18.9264 36.9483 18.9542 36.986 18.9659 37.0016C18.9933 37.0379 19.0246 37.0694 19.0472 37.0909C19.1405 37.1804 19.3058 37.3103 19.5045 37.4494C19.906 37.7308 20.5171 38.1018 21.1218 38.3225C21.4235 38.4326 21.7465 38.5141 22.0537 38.5154C22.3641 38.5169 22.6941 38.4354 22.9477 38.1791C23.1986 37.9255 23.3131 37.5626 23.3272 37.1338C23.3411 36.7055 23.2574 36.1701 23.0685 35.5108L22.3017 35.7351ZM19.3589 36.7656C19.6421 36.4813 19.6419 36.4813 19.6419 36.4811C19.6418 36.4811 19.6417 36.481 19.6415 36.4807C19.6411 36.4805 19.6407 36.4799 19.6401 36.4792C19.6387 36.4779 19.6367 36.4759 19.6341 36.4732C19.6288 36.4678 19.6209 36.4598 19.6105 36.4493C19.5896 36.428 19.5586 36.3966 19.5182 36.3554C19.4373 36.2732 19.3185 36.1523 19.1663 35.9975C18.862 35.688 18.425 35.2433 17.8939 34.7025C16.8316 33.6208 15.3932 32.1549 13.8883 30.6176C10.876 27.5406 7.60419 24.1846 6.5441 23.0466L5.96277 23.5993C7.03149 24.7467 10.3124 28.1119 13.3207 31.1849C14.826 32.7226 16.2648 34.1888 17.3272 35.2706C17.8584 35.8115 18.2956 36.2562 18.5999 36.566C18.7521 36.7207 18.871 36.8417 18.9519 36.9239C18.9924 36.9651 19.0234 36.9967 19.0443 37.0178C19.0546 37.0284 19.0625 37.0364 19.0678 37.0418C19.0705 37.0445 19.0725 37.0465 19.0738 37.0479C19.0745 37.0485 19.075 37.0491 19.0753 37.0493C19.0755 37.0495 19.0755 37.0496 19.0757 37.0498C19.0758 37.0499 19.0758 37.0499 19.3589 36.7656ZM6.5441 23.0466C5.57754 22.0089 5.3993 20.8631 5.55034 19.8635C5.70429 18.8448 6.19997 17.994 6.54673 17.6145L5.96012 17.0674C5.50859 17.5617 4.93986 18.5594 4.76118 19.7418C4.57959 20.9435 4.80052 22.3517 5.96277 23.5993L6.5441 23.0466Z" fill="black"/>
<path d="M31.1613 23.382C33.2085 20.8885 35.3219 20.8275 36.8368 20.4771C37.5385 20.3149 32.4822 22.4951 31.9461 27.2443C31.4099 31.9934 30.5802 32.5127 28.1403 34.8165C25.7004 37.1202 26.7433 36.0262 25.6789 37.1016C24.6145 38.177 23.8683 38.1649 22.6187 38.177C20.8398 38.1942 18.6272 36.1606 18.6272 36.1606C18.6272 36.1606 21.8925 38.0198 26.8764 31.7918C29.4043 28.6328 29.114 25.8754 31.1613 23.382Z" fill="#119DA4"/>
<path d="M36.8368 20.4771L36.7477 20.0841L36.8368 20.4771ZM31.1612 23.382L31.4684 23.6395L31.1612 23.382ZM26.8763 31.7918L26.5659 31.5383L26.8763 31.7918ZM18.6271 36.1607L18.8231 35.8094L18.3585 36.4591L18.6271 36.1607ZM28.1403 34.8165L28.4128 35.1111L28.1403 34.8165ZM22.6187 38.177L22.6148 37.7738L22.6187 38.177ZM36.7477 20.0841C35.2809 20.4232 33.0061 20.5034 30.854 23.1245L31.4684 23.6395C33.4108 21.2738 35.3628 21.2317 36.9258 20.8702L36.7477 20.0841ZM30.854 23.1245C29.7783 24.4347 29.3185 25.8171 28.8236 27.2002C28.3271 28.5882 27.7858 30.0137 26.5659 31.5383L27.1867 32.0453C28.4947 30.4108 29.0722 28.8782 29.5744 27.4744C30.0783 26.0658 30.4969 24.8227 31.4684 23.6395L30.854 23.1245ZM26.5659 31.5383C24.1115 34.6053 22.1223 35.629 20.7987 35.9175C20.1355 36.062 19.6269 36.0253 19.2929 35.9583C19.1253 35.9247 19.0005 35.8832 18.9211 35.8523C18.8814 35.8368 18.8532 35.8239 18.8367 35.816C18.8285 35.812 18.8231 35.8093 18.8209 35.8081C18.8198 35.8075 18.8194 35.8072 18.8197 35.8075C18.8199 35.8075 18.8203 35.8078 18.8209 35.8081C18.8211 35.8082 18.8214 35.8085 18.8218 35.8086C18.8221 35.8087 18.8223 35.809 18.8225 35.809C18.8227 35.8091 18.8231 35.8094 18.6271 36.1607C18.4312 36.512 18.4316 36.5123 18.432 36.5124C18.4321 36.5126 18.4325 36.5127 18.4328 36.513C18.4333 36.5133 18.434 36.5137 18.4346 36.5141C18.436 36.5147 18.4376 36.5157 18.4394 36.5166C18.4429 36.5185 18.4473 36.5209 18.4525 36.5236C18.4628 36.5291 18.4765 36.536 18.4934 36.5442C18.5272 36.5604 18.5739 36.5814 18.6333 36.6045C18.752 36.6509 18.9212 36.706 19.1375 36.7494C19.5715 36.8364 20.1908 36.8751 20.967 36.7059C22.5219 36.367 24.6573 35.2062 27.1867 32.0453L26.5659 31.5383ZM36.9258 20.8702C36.9439 20.866 36.9307 20.8705 36.9035 20.8717C36.8944 20.8721 36.8435 20.8748 36.7802 20.8549C36.7122 20.8336 36.5452 20.7527 36.5098 20.5417C36.4834 20.384 36.5584 20.2739 36.5685 20.2586C36.5897 20.2263 36.61 20.2068 36.6143 20.2025C36.6251 20.192 36.6289 20.1903 36.6143 20.2012C36.5524 20.2469 36.4307 20.3239 36.2242 20.4616C35.833 20.7223 35.2323 21.1401 34.5902 21.7178C33.3113 22.8682 31.8332 24.6844 31.5494 27.1986L32.3426 27.29C32.5948 25.0552 33.9131 23.4067 35.1209 22.3201C35.7222 21.7793 36.2874 21.3857 36.6638 21.1349C36.841 21.0167 37.0033 20.913 37.0858 20.8519C37.1072 20.8362 37.1384 20.8123 37.1671 20.7844C37.1806 20.7714 37.2074 20.7443 37.2328 20.7057C37.2472 20.684 37.3241 20.5686 37.2968 20.4067C37.2608 20.1916 37.0905 20.1077 37.0169 20.0846C36.9477 20.063 36.8886 20.065 36.8684 20.0659C36.8193 20.0681 36.7736 20.078 36.7477 20.0841L36.9258 20.8702ZM28.4128 35.1111C29.61 33.9808 30.4857 33.2261 31.1025 32.1495C31.7249 31.0631 32.0731 29.6767 32.3426 27.29L31.5494 27.1986C31.2828 29.561 30.9482 30.8089 30.4116 31.7454C29.8695 32.6917 29.1105 33.3485 27.8678 34.5219L28.4128 35.1111ZM27.8678 34.5219C26.6488 35.6728 26.3066 35.9686 26.1387 36.1096C25.9481 36.2694 25.9332 36.2742 25.3966 36.8165L25.961 37.3868C26.4889 36.8535 26.4847 36.8677 26.6489 36.7298C26.8356 36.5729 27.1919 36.2639 28.4128 35.1111L27.8678 34.5219ZM18.6271 36.1607C18.3585 36.4591 18.3587 36.4591 18.3587 36.4592C18.3588 36.4592 18.3588 36.4592 18.3589 36.4593C18.3591 36.4595 18.3592 36.4596 18.3595 36.4599C18.3599 36.4602 18.3604 36.4607 18.3612 36.4614C18.3625 36.4626 18.3644 36.4643 18.3669 36.4666C18.3718 36.471 18.3787 36.4774 18.3878 36.4854C18.4059 36.5016 18.432 36.5247 18.4655 36.5538C18.5326 36.6121 18.6295 36.6945 18.7512 36.7929C18.994 36.9894 19.3372 37.2517 19.7392 37.5141C20.5231 38.0258 21.607 38.5901 22.6225 38.5803L22.6148 37.7738C21.8515 37.7812 20.9396 37.3373 20.1724 36.8366C19.7989 36.5927 19.4779 36.3476 19.2502 36.1635C19.1366 36.0715 19.0468 35.9952 18.986 35.9422C18.9555 35.9159 18.9324 35.8953 18.9171 35.8816C18.9095 35.8749 18.9038 35.8698 18.9002 35.8665C18.8984 35.8648 18.8971 35.8637 18.8964 35.863C18.896 35.8626 18.8958 35.8625 18.8956 35.8624C18.8956 35.8622 18.8956 35.8622 18.8956 35.8622V35.8624C18.8956 35.8624 18.8958 35.8624 18.6271 36.1607ZM22.6225 38.5803C23.2308 38.5744 23.7879 38.5767 24.3247 38.4268C24.8813 38.2713 25.392 37.9618 25.961 37.3868L25.3966 36.8165C24.9013 37.3169 24.5067 37.5391 24.1119 37.6494C23.6969 37.7653 23.2561 37.7676 22.6148 37.7738L22.6225 38.5803Z" fill="black"/>
<path d="M22.0146 15.5273C22.5667 15.512 23.0022 15.0521 22.9872 14.5C22.9723 13.9479 22.5126 13.5127 21.9606 13.528C21.4085 13.5432 20.973 14.0031 20.988 14.5552C21.0029 15.1073 21.4626 15.5425 22.0146 15.5273Z" fill="white" stroke="black"/>
<path d="M54.0665 29.5039V14.0717H48.3187V11.5715H62.7414V14.0717H56.9936V29.5039H54.0665ZM72.6995 29.7996C70.9432 29.7996 69.4443 29.4591 68.2024 28.778C66.9783 28.097 66.047 27.0753 65.4083 25.7131C64.7697 24.3509 64.4503 22.6303 64.4503 20.5511C64.4503 17.4862 65.1511 15.174 66.5525 13.6147C67.9718 12.0554 70.0208 11.2757 72.6995 11.2757C74.4736 11.2757 75.9725 11.6163 77.1966 12.2974C78.4207 12.9785 79.352 14.0091 79.9907 15.3891C80.6472 16.7514 80.9753 18.472 80.9753 20.5511C80.9753 23.5981 80.2657 25.9012 78.8464 27.4606C77.445 29.0199 75.396 29.7996 72.6995 29.7996ZM72.6995 27.2455C73.8882 27.2455 74.8638 27.0216 75.6266 26.5734C76.4072 26.1075 76.9837 25.3816 77.3563 24.3957C77.7466 23.4099 77.9417 22.1194 77.9417 20.5242C77.9417 18.947 77.7466 17.6744 77.3563 16.7065C76.9837 15.7207 76.4072 15.0039 75.6266 14.5557C74.8638 14.0898 73.8882 13.8567 72.6995 13.8567C71.5286 13.8567 70.553 14.0898 69.7724 14.5557C68.9919 15.0217 68.4065 15.7476 68.0161 16.7334C67.6436 17.7012 67.4573 18.9739 67.4573 20.5511C67.4573 22.1284 67.6436 23.4099 68.0161 24.3957C68.4065 25.3816 68.9919 26.1075 69.7724 26.5734C70.553 27.0216 71.5286 27.2455 72.6995 27.2455ZM84.4501 29.5039V11.5715H90.6769C93.5508 11.5715 95.6886 12.3243 97.09 13.8298C98.4915 15.3353 99.1922 17.5668 99.1922 20.5242C99.1922 23.4816 98.4915 25.7221 97.09 27.2455C95.6886 28.7511 93.5508 29.5039 90.6769 29.5039H84.4501ZM87.3773 27.0035H90.3842C92.3712 27.0035 93.8348 26.4927 94.7749 25.4711C95.7152 24.4316 96.1852 22.7826 96.1852 20.5242C96.1852 18.2838 95.7152 16.6439 94.7749 15.6042C93.8348 14.5647 92.3712 14.0449 90.3842 14.0449H87.3773V27.0035ZM110.25 29.7996C108.494 29.7996 106.995 29.4591 105.753 28.778C104.529 28.097 103.597 27.0753 102.959 25.7131C102.32 24.3509 102.001 22.6303 102.001 20.5511C102.001 17.4862 102.702 15.174 104.103 13.6147C105.522 12.0554 107.571 11.2757 110.25 11.2757C112.024 11.2757 113.523 11.6163 114.747 12.2974C115.971 12.9785 116.903 14.0091 117.541 15.3891C118.198 16.7514 118.526 18.472 118.526 20.5511C118.526 23.5981 117.816 25.9012 116.397 27.4606C114.995 29.0199 112.946 29.7996 110.25 29.7996ZM110.25 27.2455C111.439 27.2455 112.414 27.0216 113.177 26.5734C113.958 26.1075 114.534 25.3816 114.907 24.3957C115.297 23.4099 115.492 22.1194 115.492 20.5242C115.492 18.947 115.297 17.6744 114.907 16.7065C114.534 15.7207 113.958 15.0039 113.177 14.5557C112.414 14.0898 111.439 13.8567 110.25 13.8567C109.079 13.8567 108.103 14.0898 107.323 14.5557C106.542 15.0217 105.957 15.7476 105.567 16.7334C105.194 17.7012 105.008 18.9739 105.008 20.5511C105.008 22.1284 105.194 23.4099 105.567 24.3957C105.957 25.3816 106.542 26.1075 107.323 26.5734C108.103 27.0216 109.079 27.2455 110.25 27.2455Z" fill="white"/>
<path d="M127.429 29.7996C126.542 29.7996 125.762 29.7458 125.087 29.6383C124.413 29.5488 123.801 29.3963 123.251 29.1812C122.701 28.9662 122.134 28.7063 121.548 28.4016V25.4442C122.24 25.9999 123.074 26.457 124.05 26.8153C125.043 27.1739 126.108 27.3531 127.243 27.3531C128.343 27.3531 129.159 27.1291 129.691 26.6809C130.241 26.215 130.516 25.5786 130.516 24.7721C130.516 24.1448 130.312 23.6429 129.904 23.2665C129.514 22.8722 128.99 22.5406 128.334 22.2717C127.678 22.0029 126.977 21.734 126.232 21.4652C125.664 21.2501 125.105 21.0261 124.555 20.7931C124.005 20.5422 123.509 20.2375 123.065 19.879C122.622 19.5026 122.267 19.0276 122.001 18.454C121.735 17.8806 121.602 17.1726 121.602 16.3301C121.602 15.7386 121.717 15.1383 121.947 14.5288C122.178 13.9194 122.524 13.3728 122.985 12.8889C123.464 12.387 124.085 11.9927 124.848 11.7059C125.629 11.4012 126.56 11.2489 127.642 11.2489C128.352 11.2489 128.964 11.2937 129.478 11.3833C130.01 11.4729 130.507 11.6163 130.968 11.8134C131.447 11.9927 131.962 12.2167 132.512 12.4856V15.3891C132.068 15.1024 131.616 14.8335 131.155 14.5826C130.711 14.3317 130.223 14.1255 129.691 13.9642C129.159 13.8029 128.565 13.7134 127.908 13.6953C127.163 13.6775 126.551 13.7671 126.072 13.9642C125.593 14.1614 125.229 14.4393 124.981 14.7976C124.733 15.1562 124.609 15.5684 124.609 16.0344C124.609 16.6617 124.759 17.1635 125.061 17.5399C125.38 17.8985 125.824 18.2032 126.391 18.454C126.959 18.6871 127.615 18.9201 128.361 19.1531C129.017 19.3681 129.656 19.6101 130.276 19.879C130.897 20.1478 131.447 20.4794 131.926 20.8737C132.405 21.2501 132.787 21.7252 133.071 22.2986C133.372 22.8722 133.523 23.5802 133.523 24.4226C133.523 25.3547 133.31 26.2329 132.884 27.0573C132.476 27.8639 131.82 28.5271 130.915 29.0468C130.028 29.5488 128.866 29.7996 127.429 29.7996ZM137.021 29.5039V11.5715H139.948V19.2875H148.144V11.5715H151.098V29.5039H148.144V21.8685H139.948V29.5039H137.021Z" fill="white"/>
</svg>
